<?xml version="1.0" encoding="utf-8"?>
<!-- Generator: Adobe Illustrator 17.0.0, SVG Export Plug-In . SVG Version: 6.00 Build 0)  -->
<!DOCTYPE svg PUBLIC "-//W3C//DTD SVG 1.1//EN" "http://www.w3.org/Graphics/SVG/1.1/DTD/svg11.dtd">
<svg version="1.1" xmlns="http://www.w3.org/2000/svg" xmlns:xlink="http://www.w3.org/1999/xlink" x="0px" y="0px"
	 width="39.104px" height="25.771px" viewBox="0 0 39.104 25.771" enable-background="new 0 0 39.104 25.771" xml:space="preserve">
<g id="bases" display="none">
	<g display="inline">
		<defs>
			<rect id="SVGID_5_" x="3" y="3.521" width="20" height="23"/>
		</defs>
		<clipPath id="SVGID_2_">
			<use xlink:href="#SVGID_5_"  overflow="visible"/>
		</clipPath>
		<g clip-path="url(#SVGID_2_)">
			
				<image overflow="visible" width="590" height="590" xlink:href="B394E82.jpg"  transform="matrix(0.1322 0 0 0.1322 -0.6667 -1)">
			</image>
		</g>
	</g>
	<g display="inline">
		<defs>
			<rect id="SVGID_7_" x="22.333" y="4.267" width="15.5" height="21.833"/>
		</defs>
		<clipPath id="SVGID_4_">
			<use xlink:href="#SVGID_7_"  overflow="visible"/>
		</clipPath>
		<g clip-path="url(#SVGID_4_)">
			
				<image overflow="visible" width="590" height="590" xlink:href="B394E86.jpg"  transform="matrix(0.1322 0 0 0.1322 -19.1667 -1.0665)">
			</image>
		</g>
	</g>
	<g display="inline">
		<defs>
			<rect id="SVGID_9_" x="13.25" y="5.187" width="15.5" height="20.333"/>
		</defs>
		<clipPath id="SVGID_6_">
			<use xlink:href="#SVGID_9_"  overflow="visible"/>
		</clipPath>
		<g clip-path="url(#SVGID_6_)">
			
				<image overflow="visible" width="590" height="590" xlink:href="B394E81.jpg"  transform="matrix(0.1322 0 0 0.1322 -28.25 -47.8333)">
			</image>
		</g>
	</g>
</g>
<g id="Layer_2">
	<g>
		<g id="XMLID_25_">
			<g>
				<path fill="#B0AEAE" d="M5.655,22.594c0,0-0.115,0.888,0.878,1.012l5.049-0.01h5.049c0.993-0.115,0.878-1.002,0.878-1.002
					l-0.401-1.222H6.056L5.655,22.594z"/>
				<path fill="#FBBD16" d="M6.295,20.218l-0.239,1.155h11.052l-0.239-1.155L16.593,7.142h-5.011c0-0.01-5.011,0-5.011,0
					L6.295,20.218z"/>
			</g>
		</g>
		<path fill="#B0AEAE" d="M6.572,7.142c0,0-1.581-0.839-2.654-0.004s-2.416,4.294-1.73,7.873s4.107,5.206,4.107,5.206
			s0.05-2.372,0.057-2.671l-0.7,0.09c0,0-1.227-0.477-2.003-2.863s0.015-5.264,0.239-5.846s1.879-2.923,2.684,1.014V7.142z"/>
		<g id="XMLID_27_">
			<g>
				<path fill="#FDF9CD" d="M5.633,4.205C5.285,4.612,4.937,5.308,5.236,6.382c0.04,0.109,0.606,1.471,2.445,1.541H7.81
					c0.477,0,0.994-0.089,1.531-0.268c0.447,0.169,1.223,0.378,2.246,0.417c0.099,0,0.209,0,0.308,0
					c0.934,0,1.888-0.149,2.843-0.447c0.268,0.08,0.616,0.169,0.994,0.179h0.119c0.487,0,0.914-0.119,1.272-0.348
					c0.686-0.457,1.034-1.213,0.885-1.948c-0.119-0.586-0.547-1.083-1.183-1.372c-0.417-0.745-1.262-1.501-2.544-1.541l-0.119-0.01
					c-0.358,0-0.736,0.06-1.123,0.159c-0.517-0.328-1.392-0.755-2.425-0.795h-0.149c-1.083,0-2.048,0.427-2.863,1.272
					C7.045,3.31,6.19,3.559,5.633,4.205z"/>
			</g>
		</g>
	</g>
	<g id="XMLID_23_">
		<g>
			<path fill="#600E16" d="M26.6,8.808c0.13,0.6,0.178,1.143,0.114,1.533c-0.308,1.922-2.538,2.984-2.538,2.984
				s-1.622,0.835-1.719,2.068h-0.665c-0.097-1.233-1.719-2.068-1.719-2.068s-2.23-1.062-2.53-2.984
				c-0.065-0.389-0.016-0.925,0.105-1.533H26.6z"/>
			<path fill="#B0AEAE" d="M26.6,8.808h-8.953c0.446-2.344,1.922-5.726,1.922-5.726h2.555h2.563
				C24.686,3.082,26.154,6.456,26.6,8.808z"/>
			<path fill="#B0AEAE" d="M26.283,23.462c0,0,0.203,0.227-0.284,0.178h-3.876h-3.876c-0.478,0.049-0.276-0.178-0.276-0.178
				c0.551-0.357,2.198-0.357,3.009-0.762c0.811-0.405,0.811-1.76,0.811-1.76v-5.547h0.665v5.547c0,0,0,1.354,0.811,1.76
				C24.078,23.105,25.724,23.105,26.283,23.462z"/>
		</g>
	</g>
	<g>
		<g>
			<path fill="#F6B818" d="M33.647,9.898l-0.037-3.547l0.356,3.471l0,0.002c1.73-0.178,3.08-1.64,3.08-3.417
				c0-1.897-1.538-3.436-3.436-3.436s-3.436,1.538-3.436,3.436s1.538,3.436,3.436,3.436"/>
			<path fill="#F8EC22" d="M33.917,9.357c1.493-0.154,2.658-1.416,2.658-2.95c0-1.638-1.328-2.966-2.966-2.966
				s-2.966,1.328-2.966,2.966s1.328,2.966,2.966,2.966V6.407L33.917,9.357z"/>
			<g>
				<g>
					<polygon fill="#F1F5F5" points="33.572,6.403 33.245,3.527 33.35,3.516 33.676,6.386 					"/>
					
						<rect x="30.616" y="6.395" transform="matrix(0.7878 0.616 -0.616 0.7878 11.0959 -19.3176)" fill="#F1F5F5" width="5.93" height="0.096"/>
					
						<rect x="33.586" y="3.451" transform="matrix(0.7941 0.6078 -0.6078 0.7941 10.8177 -19.1243)" fill="#F1F5F5" width="0.096" height="5.903"/>
					
						<rect x="33.564" y="3.485" transform="matrix(0.155 0.9879 -0.9879 0.155 34.7686 -27.7617)" fill="#F1F5F5" width="0.097" height="5.915"/>
				</g>
			</g>
		</g>
		<path opacity="0.7" fill="#B0AEAE" d="M33.969,10.327c-0.165-2.24-0.372-3.8-0.372-3.8h-3.589H26.41c0,0-0.206,1.56-0.37,3.8
			L33.969,10.327z"/>
		<g id="XMLID_26_">
			<g>
				<path fill="#F8EC22" d="M33.964,10.327c0.249,3.291,0.393,8.041-0.326,11.485h-7.264c-0.729-3.445-0.576-8.194-0.336-11.485
					H33.964z"/>
				<path fill="#B0AEAE" d="M26.374,21.812h7.264c-0.134,0.662-0.307,1.267-0.518,1.813h-3.109h-3.118
					C26.681,23.079,26.518,22.474,26.374,21.812z"/>
			</g>
		</g>
		<path opacity="0.7" fill="#FFFFFF" d="M30.244,14.004c0.124,0.314-0.03,0.67-0.345,0.794l-1.708,0.673
			c-0.314,0.124-0.67-0.03-0.794-0.345l-0.673-1.708c-0.124-0.314,0.03-0.67,0.345-0.794l1.708-0.673
			c0.314-0.124,0.67,0.03,0.794,0.345L30.244,14.004z"/>
		<path opacity="0.7" fill="#FFFFFF" d="M32.723,17.929c-0.111,0.319-0.459,0.488-0.779,0.377l-1.734-0.602
			c-0.319-0.111-0.488-0.459-0.377-0.779l0.602-1.734c0.111-0.319,0.459-0.488,0.779-0.377l1.734,0.602
			c0.319,0.111,0.488,0.459,0.377,0.779L32.723,17.929z"/>
		<path opacity="0.7" fill="#FFFFFF" d="M29.966,21.408c-0.23,0.248-0.617,0.262-0.865,0.032l-1.345-1.249
			c-0.248-0.23-0.262-0.617-0.032-0.865l1.249-1.345c0.23-0.248,0.617-0.262,0.865-0.032l1.345,1.249
			c0.248,0.23,0.262,0.617,0.032,0.865L29.966,21.408z"/>
	</g>
</g>
</svg>
