<?xml version="1.0" encoding="utf-8"?>
<!-- Generator: Adobe Illustrator 17.0.0, SVG Export Plug-In . SVG Version: 6.00 Build 0)  -->
<!DOCTYPE svg PUBLIC "-//W3C//DTD SVG 1.1//EN" "http://www.w3.org/Graphics/SVG/1.1/DTD/svg11.dtd">
<svg version="1.1" xmlns="http://www.w3.org/2000/svg" xmlns:xlink="http://www.w3.org/1999/xlink" x="0px" y="0px"
	 width="39.104px" height="25.771px" viewBox="0 0 39.104 25.771" enable-background="new 0 0 39.104 25.771" xml:space="preserve">
<g id="bases" display="none">
	<g display="inline">
		<defs>
			<rect id="SVGID_1_" x="1" y="14.438" width="21.004" height="8.571"/>
		</defs>
		<clipPath id="SVGID_2_">
			<use xlink:href="#SVGID_1_"  overflow="visible"/>
		</clipPath>
		<g clip-path="url(#SVGID_2_)">
			
				<image overflow="visible" width="452" height="452" xlink:href="E4B0DA1A.jpg"  transform="matrix(0.0483 0 0 0.0483 1 11.6218)">
			</image>
		</g>
	</g>
	<g display="inline">
		<defs>
			<rect id="SVGID_3_" x="67.667" y="2.18" width="22.167" height="22.008"/>
		</defs>
		<clipPath id="SVGID_4_">
			<use xlink:href="#SVGID_3_"  overflow="visible"/>
		</clipPath>
		<g transform="matrix(1 0 0 1 0 -9.536743e-007)" clip-path="url(#SVGID_4_)">
			
				<image overflow="visible" width="1920" height="1080" xlink:href="E4B0DA1E.jpg"  transform="matrix(0.0739 0 0 0.0739 -35.0116 -14.6526)">
			</image>
		</g>
	</g>
</g>
<g id="Layer_2">
	<path fill="#B0AEAE" d="M23.992,10.161c0,0-0.332-0.874-1.477-1.507c-1.145-0.633-1.507-1.537,0-2.11s3.466-0.874,2.14-1.206
		S19.953,4.262,22.666,2.6c0,0,1.417-0.797,1.718-0.567s0.392,0.592-0.271,0.803c-0.663,0.211-3.918,1.085,0.03,1.809
		s2.351,1.326,1.266,1.748c-1.085,0.422-3.496,0.603-3.105,1.387C22.696,8.563,24.294,9.106,23.992,10.161z"/>
	<path fill="#B0AEAE" d="M25.531,9.46c0,0-0.211-0.556-0.939-0.958c-0.728-0.402-0.958-0.977,0-1.341
		c0.958-0.364,2.529-0.364,1.839-0.096s-2.222,0.383-1.973,0.881C24.708,8.444,25.723,8.789,25.531,9.46z"/>
	<g>
		<path fill="#D8D4B5" d="M33.641,13.62l1.415-1.14c0.264,0.106,0.634,0.19,1.014,0.074c0.285-0.084,0.665-0.306,0.897-0.897
			c0.232-0.57,0.095-0.971-0.063-1.214c-0.222-0.338-0.591-0.507-0.897-0.581c-0.021-0.37-0.127-0.834-0.454-1.151
			c-0.179-0.179-0.507-0.37-1.003-0.306c-0.401,0.053-0.729,0.243-0.95,0.549c-0.285,0.391-0.327,0.876-0.317,1.183l-1.415,1.33l0,0
			L33.641,13.62z"/>
		<path fill="#633D21" d="M33.371,16.372c0.739,0.897,1.003,3.368,1.045,3.854c0,2.091-2.291,3.336-2.386,3.379l-0.116,0.063
			l-15.542-0.011c-0.042-0.011-1.256-0.317-1.974-1.52c-0.57-0.929-0.676-2.112-0.327-3.505c0.94-3.727,3.579-6.472,7.444-7.739
			c3.252-1.056,6.557,0.412,7.433,0.855c0.612-0.211,2.027-0.634,2.904-0.306l0,0l1.774,2.154v0.011
			c-0.012,0.091-0.228,1.388-0.488,2.374c-0.012,0.047-0.025,0.094-0.038,0.14L33.371,16.372z"/>
		<path fill="#4C2F19" d="M33.341,14.96c0,0-0.538,3.875-3.886,5.596c-0.961,0.496-1.89,0.581-2.777,0.253
			c-1.753-0.665-2.608-2.787-2.64-2.872l0.982-0.391c0.011,0.021,0.718,1.774,2.038,2.27c0.591,0.222,1.225,0.158,1.922-0.201
			c2.407-1.246,3.104-3.791,3.273-4.561c0,0,0.66-2.279,0.33-2.702l1.04,1.241L33.341,14.96z"/>
	</g>
	<g>
		<path fill="#437839" d="M12.826,21.395c0.011,0.011,0.265,0.044,1.866-0.276c0.497-0.099,0.839-0.331,1.038-0.673
			c0.397-0.718,0.055-1.711,0.055-1.722c-0.629-1.678-2.384-1.049-2.462-1.027l-0.166,0.066l-0.022-0.177
			c0-0.055-0.177-1.468-1.667-1.347c-1.523,0.132-1.788,1.391-1.788,1.402l-0.033,0.155l-0.144-0.055
			c-0.762-0.254-1.369-0.232-1.81,0.077c-0.718,0.486-0.773,1.534-0.773,1.545L12.826,21.395z"/>
		<path fill="#F2EED1" d="M7.845,22.232c0.022-0.033,0.585-0.607,1.016-0.971c0.32-0.265,0.088-0.552,0.066-0.585
			c-0.055-0.077-1.071-1.7-1.325-2.23c-0.199-0.408-0.872-0.11-0.872-0.11l-3.146,1.656L7.845,22.232z"/>
		<path fill="#689F42" d="M18.982,23.704c0.103-0.091,0.189-0.196,0.257-0.314c0.397-0.718,0.055-1.711,0.055-1.722
			c-0.629-1.678-2.384-1.049-2.462-1.027l-0.166,0.066l-0.022-0.177c0-0.055-0.177-1.468-1.667-1.347
			c-1.523,0.132-1.788,1.391-1.788,1.402l-0.033,0.155l-0.144-0.055c-0.762-0.254-1.369-0.232-1.81,0.077
			c-0.718,0.486-0.773,1.534-0.773,1.545l4.053,1.394C14.484,23.703,18.786,23.877,18.982,23.704z"/>
		<g id="XMLID_71_">
			<g>
				<path fill="#494647" d="M5.209,18.99c0.568-0.182,1.209,0.227,1.428,0.91c0.219,0.683-0.065,1.389-0.633,1.571
					c-0.578,0.185-1.219-0.224-1.438-0.907C4.347,19.881,4.631,19.175,5.209,18.99z"/>
			</g>
		</g>
		<g>
			<g>
				<g id="XMLID_14_">
					<g>
						<path fill="#EF4423" d="M10.43,23.699H3.652c0,0-1.27-2.064-0.243-3.875L10.43,23.699z"/>
						<path fill="#BE3A26" d="M3.652,23.699H2.548c-1.203-2.097,0-4.283,0-4.283l0.861,0.408
							C2.382,21.635,3.652,23.699,3.652,23.699z"/>
					</g>
				</g>
				<ellipse fill="#F37046" cx="4.094" cy="21.259" rx="0.578" ry="0.276"/>
				
					<ellipse transform="matrix(0.9266 -0.3761 0.3761 0.9266 -8.1278 3.2253)" fill="#F37046" cx="4.197" cy="22.432" rx="0.578" ry="0.276"/>
				<path fill="#F37046" d="M4.656,23.699c0.028-0.102,0.083-0.216,0.164-0.326c0.188-0.258,0.44-0.394,0.564-0.304
					c0.123,0.09,0.07,0.372-0.118,0.629"/>
				<path fill="#F37046" d="M7.744,23.611c-0.096-0.221-0.096-0.425,0.01-0.49c0.13-0.08,0.37,0.077,0.537,0.349
					c0.042,0.068,0.075,0.137,0.099,0.203"/>
				<path fill="#F37046" d="M6.522,23.7c-0.007-0.19,0.047-0.336,0.149-0.366c0.128-0.037,0.29,0.122,0.388,0.368"/>
			</g>
		</g>
		<g>
			<path fill="#F6B818" d="M14.475,23.701c0.182-0.437,0.282-0.916,0.282-1.419c0-2.045-1.658-3.703-3.703-3.703
				s-3.703,1.658-3.703,3.703c0,0.503,0.1,0.983,0.282,1.42L14.475,23.701z"/>
			<g id="XMLID_5_">
				<g>
					<path fill="#F8EC22" d="M14.04,21.836c0.011,0.099,0.022,0.21,0.022,0.32c0,0.574-0.155,1.093-0.419,1.545h-0.607
						c-0.563-0.431-1.126-0.85-1.689-1.281c-0.044-0.033-0.099-0.077-0.166-0.144C12.163,22.134,13.091,21.991,14.04,21.836z"/>
					<path fill="#FFFFFF" d="M14.029,21.715c0.011,0.044,0.011,0.077,0.011,0.121c-0.949,0.155-1.877,0.298-2.859,0.442
						c0.066,0.066,0.121,0.11,0.166,0.144c0.563,0.431,1.126,0.85,1.689,1.281h-0.21c-0.552-0.419-1.104-0.828-1.645-1.247
						c-0.033-0.022-0.077-0.033-0.144-0.066c0.044,0.331,0.121,0.96,0.166,1.314h-0.144c-0.055-0.442-0.099-0.894-0.155-1.358
						c-0.375,0.464-0.74,0.916-1.093,1.358h-0.11c0.32-0.431,0.651-0.872,1.005-1.347c-0.486,0.066-0.905,0.132-1.336,0.199
						c-0.431,0.066-0.861,0.132-1.292,0.199c-0.011-0.044-0.011-0.088-0.022-0.132c0.905-0.132,1.81-0.276,2.76-0.408
						c-0.077-0.077-0.121-0.121-0.166-0.155c-0.662-0.508-1.314-0.994-1.976-1.501c-0.022-0.011-0.066-0.055-0.11-0.099
						c0.011-0.033,0.033-0.066,0.066-0.099c0.729,0.563,1.457,1.115,2.241,1.7c-0.121-0.994-0.243-1.91-0.353-2.859v-0.011
						c0.044-0.011,0.088-0.011,0.132-0.022c0.088,0.773,0.188,1.545,0.287,2.307c0.011,0.144,0.033,0.287,0.055,0.475
						c0.055-0.066,0.11-0.099,0.132-0.155c0.53-0.695,1.071-1.413,1.612-2.131c0.033,0.022,0.066,0.044,0.099,0.077
						c-0.596,0.795-1.192,1.59-1.833,2.44C12.053,22.013,13.046,21.858,14.029,21.715z"/>
					<path fill="#F8EC22" d="M12.837,19.739c0.64,0.464,1.071,1.17,1.192,1.976c-0.982,0.144-1.976,0.298-3.025,0.464
						C11.644,21.328,12.24,20.534,12.837,19.739z"/>
					<path fill="#F8EC22" d="M12.826,23.702h-1.623c-0.044-0.353-0.121-0.982-0.166-1.314c0.066,0.033,0.11,0.044,0.144,0.066
						C11.722,22.874,12.274,23.282,12.826,23.702z"/>
					<path fill="#F8EC22" d="M12.737,19.661c-0.541,0.718-1.082,1.435-1.612,2.131c-0.022,0.055-0.077,0.088-0.132,0.155
						c-0.022-0.188-0.044-0.331-0.055-0.475c-0.099-0.762-0.199-1.534-0.287-2.307c0.132-0.011,0.254-0.022,0.386-0.022
						C11.666,19.143,12.263,19.33,12.737,19.661z"/>
					<path fill="#F8EC22" d="M10.905,22.344c0.055,0.464,0.099,0.916,0.155,1.358H9.812C10.165,23.26,10.529,22.808,10.905,22.344z"
						/>
					<path fill="#F8EC22" d="M10.651,22.057c0.044,0.033,0.088,0.077,0.166,0.155c-0.949,0.132-1.855,0.276-2.76,0.408
						c-0.022-0.155-0.033-0.309-0.033-0.464c0-0.629,0.199-1.214,0.541-1.7c0.044,0.044,0.088,0.088,0.11,0.099
						C9.337,21.063,9.988,21.549,10.651,22.057z"/>
					<path fill="#F8EC22" d="M10.518,19.198c0.11,0.949,0.232,1.866,0.353,2.859c-0.784-0.585-1.512-1.137-2.241-1.7
						C9.072,19.75,9.746,19.319,10.518,19.198z"/>
					<path fill="#F8EC22" d="M10.706,22.355c-0.353,0.475-0.684,0.916-1.005,1.347H8.443c-0.166-0.287-0.298-0.607-0.364-0.949
						c0.431-0.066,0.861-0.132,1.292-0.199C9.801,22.487,10.22,22.421,10.706,22.355z"/>
				</g>
			</g>
		</g>
		<ellipse fill="#494647" cx="14.838" cy="22.432" rx="0.81" ry="1.027"/>
	</g>
</g>
</svg>
