<?xml version="1.0" encoding="utf-8"?>
<!-- Generator: Adobe Illustrator 17.0.0, SVG Export Plug-In . SVG Version: 6.00 Build 0)  -->
<!DOCTYPE svg PUBLIC "-//W3C//DTD SVG 1.1//EN" "http://www.w3.org/Graphics/SVG/1.1/DTD/svg11.dtd">
<svg version="1.1" xmlns="http://www.w3.org/2000/svg" xmlns:xlink="http://www.w3.org/1999/xlink" x="0px" y="0px"
	 width="39.104px" height="25.771px" viewBox="0 0 39.104 25.771" enable-background="new 0 0 39.104 25.771" xml:space="preserve">
<g id="bases" display="none">
	
		<image display="inline" overflow="visible" width="200" height="200" xlink:href="E803D494.jpg"  transform="matrix(0.1299 0 0 0.1299 4.3438 1.6458)">
	</image>
	
		<image display="inline" overflow="visible" width="227" height="222" xlink:href="E803D495.jpg"  transform="matrix(0.0881 0 0 0.0881 19.1667 5.6411)">
	</image>
	<g display="inline">
		<defs>
			<rect id="SVGID_3_" x="127.667" y="2.18" width="22.167" height="22.008"/>
		</defs>
		<clipPath id="SVGID_2_">
			<use xlink:href="#SVGID_3_"  overflow="visible"/>
		</clipPath>
		<g transform="matrix(1 0 0 1 0 -9.536743e-007)" clip-path="url(#SVGID_2_)">
			
				<image overflow="visible" width="1920" height="1080" xlink:href="E803D493.jpg"  transform="matrix(0.0739 0 0 0.0739 24.9884 -14.6526)">
			</image>
		</g>
	</g>
</g>
<g id="Layer_2">
	<g>
		<rect x="9.898" y="5.695" fill="#B0AEAE" width="14.081" height="1.024"/>
		<rect x="13.877" y="4.586" fill="#B0AEAE" width="6.123" height="1.024"/>
		<path fill="#B0AEAE" d="M16.248,4.586l0.413-1.072c0.028-0.092,0.416-1.159,2.198-1.411c0.535-0.075,1.169-0.1,1.776-0.1
			c1.161,0,2.221,0.091,2.288,0.097l-0.09,1.02c-0.016-0.001-1.079-0.093-2.212-0.093c-0.562,0-1.141,0.023-1.619,0.09
			c-1.138,0.161-1.371,0.726-1.38,0.75l-0.277,0.719L16.248,4.586z"/>
		<g id="XMLID_2_">
			<g>
				<polygon fill="#A2B4DD" points="11.11,7.35 22.743,7.35 23.757,7.493 21.432,23.765 12.421,23.765 10.096,7.493 				"/>
			</g>
		</g>
	</g>
	<g>
		<g id="XMLID_7_">
			<g>
				<path fill="#C07F2A" d="M10.074,11.911l-0.48,4.45l-1.49-0.16l0.48-4.45L10.074,11.911z M9.374,16.091l0.43-3.96l-0.99-0.11
					l-0.43,3.96L9.374,16.091z"/>
				
					<rect x="7.102" y="13.558" transform="matrix(0.108 -0.9942 0.9942 0.108 -5.8614 21.5793)" fill="#FBB321" width="3.983" height="0.996"/>
			</g>
		</g>
		<g id="XMLID_9_">
			<g>
				<path fill="#C07F2A" d="M8.057,12.04l-0.06,4.475l-1.498-0.019l0.06-4.475L8.057,12.04z M7.753,16.267l0.056-3.983l-0.996-0.017
					l-0.056,3.983L7.753,16.267z"/>
				
					<rect x="5.291" y="13.77" transform="matrix(0.0141 -0.9999 0.9999 0.0141 -7.086 21.3489)" fill="#FBB321" width="3.983" height="0.996"/>
			</g>
		</g>
		<g id="XMLID_10_">
			<g>
				<path fill="#C07F2A" d="M6.181,11.163l0.369,4.461l-1.493,0.124l-0.369-4.461L6.181,11.163z M6.283,15.4l-0.326-3.97
					l-0.993,0.079l0.326,3.97L6.283,15.4z"/>
				
					<rect x="3.632" y="12.956" transform="matrix(-0.0817 -0.9967 0.9967 -0.0817 -7.326 20.1583)" fill="#FBB321" width="3.983" height="0.996"/>
			</g>
		</g>
		<g id="XMLID_11_">
			<g>
				<path fill="#C07F2A" d="M11.875,13.324l-1.194,4.314l-1.444-0.399l1.194-4.314L11.875,13.324z M10.508,17.336l1.065-3.838
					l-0.959-0.269l-1.065,3.838L10.508,17.336z"/>
				
					<rect x="8.569" y="14.784" transform="matrix(0.2675 -0.9636 0.9636 0.2675 -6.9891 21.3709)" fill="#FBB321" width="3.983" height="0.996"/>
			</g>
		</g>
		<g id="XMLID_12_">
			<g>
				<path fill="#C07F2A" d="M4.45,12.671l0.681,4.424l-1.481,0.229l-0.681-4.424L4.45,12.671z M4.848,16.89l-0.603-3.937
					L3.26,13.101l0.603,3.937L4.848,16.89z"/>
				
					<rect x="2.063" y="14.497" transform="matrix(-0.1514 -0.9885 0.9885 -0.1514 -10.1547 21.2729)" fill="#FBB321" width="3.983" height="0.996"/>
			</g>
		</g>
		<g id="XMLID_6_">
			<g>
				<path fill="#C07F2A" d="M7.278,14.612l-0.162,4.473l-1.498-0.053l0.162-4.473L7.278,14.612z M6.878,18.831l0.147-3.981
					l-0.995-0.039l-0.147,3.981L6.878,18.831z"/>
				
					<rect x="4.462" y="16.323" transform="matrix(0.0369 -0.9993 0.9993 0.0369 -10.5942 22.65)" fill="#FBB321" width="3.983" height="0.996"/>
			</g>
		</g>
		<g id="XMLID_4_">
			<g>
				<path fill="#C07F2A" d="M5.54,13.455l0.464,4.452l-1.49,0.156l-0.464-4.452L5.54,13.455z M5.732,17.689l-0.41-3.962l-0.991,0.1
					l0.41,3.962L5.732,17.689z"/>
				
					<rect x="3.04" y="15.26" transform="matrix(-0.103 -0.9947 0.9947 -0.103 -10.1242 22.3859)" fill="#FBB321" width="3.983" height="0.996"/>
			</g>
		</g>
		<g id="XMLID_3_">
			<g>
				<path fill="#C07F2A" d="M8.98,13.458l-0.48,4.45l-1.49-0.16l0.48-4.45L8.98,13.458z M8.28,17.638l0.43-3.96l-0.99-0.11
					l-0.43,3.96L8.28,17.638z"/>
				
					<rect x="6.009" y="15.105" transform="matrix(0.108 -0.9942 0.9942 0.108 -8.3749 21.8719)" fill="#FBB321" width="3.983" height="0.996"/>
			</g>
		</g>
		<g id="XMLID_8_">
			<g>
				<path fill="#C07F2A" d="M9.898,15.302l-0.48,4.45l-1.49-0.16l0.48-4.45L9.898,15.302z M9.198,19.482l0.43-3.96l-0.99-0.11
					l-0.43,3.96L9.198,19.482z"/>
				
					<rect x="6.927" y="16.949" transform="matrix(0.108 -0.9942 0.9942 0.108 -9.3895 24.4299)" fill="#FBB321" width="3.983" height="0.996"/>
			</g>
		</g>
		<g id="XMLID_13_">
			<g>
				<path fill="#ED1A3F" d="M12.59,15.138l-2.17,8.63H4.18L2,15.138h2.42l0.12,0.34c0.03,0.08,0.71,1.97,2.58,1.97l0.15-0.01
					l0.2,0.01c1.89,0,2.58-1.95,2.58-1.97l0.12-0.34H12.59z"/>
			</g>
		</g>
	</g>
	<g>
		<g>
			<g>
				<path fill="#C97129" d="M20.902,20.287c0.131,0.079,0.25,0.135,0.352,0.214c0.358,0.278,0.749,0.277,1.159,0.158
					c0.043-0.013,0.088-0.021,0.131-0.036c0.388-0.138,0.743-0.077,1.074,0.166c0.309,0.227,0.644,0.399,1.032,0.44
					c0.502,0.053,0.948-0.098,1.355-0.382c0.321-0.224,0.667-0.377,1.065-0.26c0.169,0.05,0.336,0.134,0.482,0.236
					c0.808,0.565,1.595,0.563,2.38-0.019c0.445-0.33,1.009-0.343,1.451-0.008c0.605,0.459,1.254,0.579,1.96,0.292
					c0.181-0.074,0.346-0.192,0.506-0.307c0.324-0.231,0.678-0.297,1.046-0.163c0.437,0.158,0.848,0.152,1.254-0.08
					c0.077-0.044,0.166-0.069,0.29-0.119c-0.041,0.563-0.015,1.115-0.132,1.634c-0.245,1.088-1.281,1.722-2.113,1.71
					c-0.096-0.001-0.193,0.006-0.289,0.006c-3.504,0-7.007-0.003-10.511,0.003c-0.566,0.001-1.093-0.1-1.55-0.449
					c-0.584-0.444-0.903-1.037-0.937-1.77C20.886,21.14,20.902,20.726,20.902,20.287z"/>
			</g>
			<g>
				<path fill="#689F42" d="M20.58,18.935c0.104,0.084,0.225,0.154,0.31,0.254c0.215,0.255,0.505,0.26,0.796,0.261
					c1.256,0.004,2.512,0.006,3.768,0.006c3.326,0.001,6.653,0.002,9.979,0c0.322,0,0.63-0.064,0.865-0.307
					c0.096-0.1,0.169-0.223,0.253-0.337c0.323,0.437,0.306,1.036-0.035,1.546c-0.197,0.293-0.457,0.466-0.821,0.446
					c-0.366-0.02-0.733-0.033-1.097-0.07c-0.345-0.035-0.646,0.05-0.92,0.255c-0.468,0.349-0.978,0.464-1.561,0.345
					c-0.317-0.065-0.586-0.193-0.837-0.375c-0.422-0.308-0.853-0.306-1.299-0.065c-0.208,0.112-0.408,0.243-0.624,0.337
					c-0.535,0.232-1.072,0.237-1.593-0.049c-0.143-0.078-0.275-0.177-0.414-0.263c-0.366-0.227-0.737-0.211-1.15-0.101
					c-0.393,0.105-0.703,0.348-1.062,0.496c-0.321,0.132-0.679,0.117-1.009-0.017c-0.181-0.073-0.345-0.188-0.518-0.28
					c-0.193-0.103-0.372-0.297-0.73-0.294c-0.358,0.003-0.973,0.156-1.186,0.178c-0.129,0.014-0.288-0.027-0.399-0.097
					c-0.595-0.376-0.971-0.81-0.745-1.633c0.025-0.09,0.042-0.181,0.062-0.272C20.601,18.91,20.591,18.922,20.58,18.935z"/>
			</g>
			<g>
				<path fill="#4D311B" d="M35.576,19.638c-4.64,0-9.281,0-13.921,0c-0.223-0.07-0.436-0.161-0.643-0.269
					c-0.287-0.15-0.508-0.353-0.652-0.649c-0.085-0.176-0.131-0.362-0.199-0.541c0-0.204,0-0.407,0-0.611
					c0.085-0.307,0.192-0.595,0.448-0.815c0.111-0.096,0.166-0.159,0.276-0.013c0.05,0.066,0.143,0.099,0.212,0.153
					c0.281,0.224,0.585,0.34,0.95,0.236c0.136-0.039,0.275-0.084,0.421-0.064c0.075,0.143,0.22,0.219,0.327,0.331
					c0.429,0.451,0.867,0.893,1.304,1.336c0.106,0.108,0.21,0.11,0.32-0.005c0.269-0.283,0.541-0.564,0.815-0.842
					c0.142-0.144,0.265-0.309,0.449-0.41c0.09-0.05,0.149-0.045,0.222,0.03c0.232,0.24,0.471,0.473,0.708,0.709
					c0.169,0.168,0.336,0.337,0.508,0.5c0.096,0.091,0.194,0.119,0.308,0.006c0.229-0.227,0.473-0.438,0.703-0.664
					c0.128-0.125,0.275-0.232,0.372-0.387c0.217-0.02,0.434-0.039,0.65-0.059c0.018,0.028,0.032,0.059,0.054,0.083
					c0.325,0.338,0.65,0.676,0.978,1.012c0.131,0.134,0.26,0.133,0.392-0.002c0.359-0.368,0.717-0.738,1.075-1.107
					c0.023-0.024,0.053-0.044,0.047-0.084c0.205,0.093,0.43,0.104,0.643,0.162c0.328,0.335,0.655,0.671,0.984,1.005
					c0.154,0.157,0.226,0.157,0.381,0.008c0.318-0.305,0.638-0.609,0.955-0.915c0.211-0.203,0.419-0.409,0.628-0.614
					c0.114-0.022,0.233-0.032,0.342-0.069c0.15-0.051,0.322-0.004,0.457-0.116c0.159-0.133,0.312-0.273,0.454-0.423
					c0.106,0.091,0.171,0.21,0.258,0.31c0.178,0.204,0.226,0.462,0.304,0.708c0,0.215,0,0.43,0,0.645
					c-0.009,0.005-0.025,0.009-0.026,0.016c-0.123,0.734-0.621,1.117-1.27,1.363C35.731,19.62,35.639,19.557,35.576,19.638z"/>
				<path fill="#F7B121" d="M22.468,17.063c0.37-0.169,0.702-0.064,1.014,0.147c0.215,0.146,0.428,0.291,0.68,0.373
					c0.401,0.13,0.785,0.115,1.161-0.09c0.282-0.154,0.567-0.299,0.869-0.412c0.406-0.153,0.783-0.121,1.147,0.111
					c0.237,0.151,0.463,0.316,0.731,0.419c0.146,0.056,0.288,0.036,0.431,0.056c-0.097,0.154-0.244,0.262-0.372,0.387
					c-0.23,0.226-0.474,0.437-0.703,0.664c-0.114,0.113-0.211,0.086-0.308-0.006c-0.172-0.163-0.34-0.332-0.508-0.5
					c-0.237-0.235-0.475-0.469-0.708-0.709c-0.072-0.075-0.132-0.08-0.222-0.03c-0.184,0.102-0.306,0.266-0.449,0.41
					c-0.274,0.278-0.546,0.558-0.815,0.842c-0.11,0.116-0.214,0.113-0.32,0.005c-0.436-0.444-0.875-0.886-1.304-1.336
					C22.688,17.282,22.544,17.206,22.468,17.063z"/>
				<path fill="#F7B121" d="M29.153,17.609c0.279-0.158,0.555-0.323,0.838-0.472c0.467-0.245,0.911-0.205,1.321,0.134
					c0.118,0.098,0.252,0.169,0.386,0.24c0.006,0.04-0.024,0.061-0.047,0.084c-0.358,0.369-0.716,0.739-1.075,1.107
					c-0.132,0.135-0.261,0.136-0.392,0.002c-0.327-0.336-0.653-0.674-0.978-1.012C29.185,17.668,29.171,17.636,29.153,17.609z"/>
				<path fill="#F7B121" d="M32.342,17.673c0.496,0.031,0.93-0.128,1.321-0.427c0.298-0.228,0.628-0.319,1.002-0.224
					c0.206,0.052,0.416,0.091,0.624,0.136c-0.209,0.205-0.417,0.411-0.628,0.614c-0.317,0.306-0.637,0.61-0.955,0.915
					c-0.156,0.149-0.227,0.149-0.381-0.008C32.997,18.344,32.67,18.008,32.342,17.673z"/>
			</g>
			<g>
				<path fill="#689F42" d="M20.58,15.277c0.104,0.084,0.225,0.154,0.31,0.254c0.215,0.255,0.505,0.26,0.796,0.261
					c1.256,0.004,2.512,0.006,3.768,0.006c3.326,0.001,6.653,0.002,9.979,0c0.322,0,0.63-0.064,0.865-0.307
					c0.096-0.1,0.169-0.223,0.253-0.337c0.323,0.437,0.306,1.036-0.035,1.546c-0.197,0.293-0.457,0.466-0.821,0.446
					c-0.366-0.02-0.733-0.033-1.097-0.07c-0.345-0.035-0.646,0.05-0.92,0.255c-0.468,0.349-0.978,0.464-1.561,0.345
					c-0.317-0.065-0.586-0.193-0.837-0.375c-0.422-0.308-0.853-0.306-1.299-0.065c-0.208,0.112-0.408,0.243-0.624,0.337
					c-0.535,0.232-1.072,0.237-1.593-0.049c-0.143-0.078-0.275-0.177-0.414-0.263c-0.366-0.227-0.737-0.211-1.15-0.101
					c-0.393,0.105-0.703,0.348-1.062,0.496c-0.321,0.132-0.679,0.117-1.009-0.017c-0.181-0.073-0.345-0.188-0.518-0.28
					c-0.193-0.103-0.372-0.297-0.73-0.294c-0.358,0.003-0.973,0.156-1.186,0.178c-0.129,0.014-0.288-0.027-0.399-0.097
					c-0.595-0.376-0.971-0.81-0.745-1.633c0.025-0.09,0.042-0.181,0.062-0.272C20.601,15.252,20.591,15.265,20.58,15.277z"/>
			</g>
			<g>
				<path fill="#C97129" d="M35.484,15.935c-0.022,0-0.043,0-0.065,0c-0.018,0-0.035,0-0.053,0l-9.561,0
					c-1.344,0-2.689,0-4.033,0.001c-0.147,0-0.451,0-0.739-0.209c-0.256-0.186-0.531-0.542-0.391-1.187
					c0.255-1.169,0.878-2.205,1.851-3.08c0.93-0.836,2.069-1.45,3.385-1.823c0.461-0.131,0.954-0.221,1.596-0.292
					c0.418-0.046,0.796-0.085,1.192-0.085c0.167,0,0.322,0.007,0.475,0.021c0.095,0.009,0.191,0.017,0.286,0.024
					c0.337,0.028,0.685,0.056,1.04,0.121c0.793,0.144,1.567,0.39,2.299,0.732c0.579,0.27,1.041,0.539,1.456,0.847
					c0.76,0.565,1.368,1.24,1.806,2.008c0.321,0.562,0.52,1.09,0.611,1.616c0.059,0.343-0.016,0.665-0.211,0.907
					c-0.194,0.24-0.488,0.381-0.83,0.396C35.564,15.935,35.528,15.935,35.484,15.935z"/>
			</g>
		</g>
		
			<ellipse transform="matrix(0.8776 -0.4794 0.4794 0.8776 -2.622 13.4394)" fill="#FDF7BD" cx="25.004" cy="11.854" rx="0.366" ry="0.175"/>
		
			<ellipse transform="matrix(0.8876 -0.4606 0.4606 0.8876 -2.2819 13.8948)" fill="#FDF7BD" cx="27.331" cy="11.623" rx="0.366" ry="0.175"/>
		
			<ellipse transform="matrix(0.9729 0.2313 -0.2313 0.9729 3.3625 -6.6498)" fill="#FDF7BD" cx="30.038" cy="11.013" rx="0.366" ry="0.175"/>
		
			<ellipse transform="matrix(0.7211 0.6928 -0.6928 0.7211 17.3247 -19.3284)" fill="#FDF7BD" cx="32.669" cy="11.854" rx="0.366" ry="0.175"/>
		
			<ellipse transform="matrix(0.8667 0.4989 -0.4989 0.8667 10.7883 -14.4235)" fill="#FDF7BD" cx="32.378" cy="12.971" rx="0.366" ry="0.175"/>
		
			<ellipse transform="matrix(0.1227 0.9924 -0.9924 0.1227 40.779 -18.153)" fill="#FDF7BD" cx="30.658" cy="13.99" rx="0.366" ry="0.175"/>
		
			<ellipse transform="matrix(-0.0209 0.9998 -0.9998 -0.0209 41.9077 -15.4603)" fill="#FDF7BD" cx="28.524" cy="12.79" rx="0.366" ry="0.175"/>
		
			<ellipse transform="matrix(0.2714 0.9625 -0.9625 0.2714 38.7532 -23.5137)" fill="#FDF7BD" cx="34.907" cy="13.839" rx="0.366" ry="0.175"/>
		
			<ellipse transform="matrix(0.6865 -0.7271 0.7271 0.6865 -2.8055 21.0436)" fill="#FDF7BD" cx="23.003" cy="13.775" rx="0.366" ry="0.175"/>
		
			<ellipse transform="matrix(0.2892 -0.9573 0.9573 0.2892 5.2338 35.084)" fill="#FDF7BD" cx="26.243" cy="14.018" rx="0.366" ry="0.175"/>
	</g>
</g>
</svg>
