<?xml version="1.0" encoding="utf-8"?>
<!-- Generator: Adobe Illustrator 17.0.0, SVG Export Plug-In . SVG Version: 6.00 Build 0)  -->
<!DOCTYPE svg PUBLIC "-//W3C//DTD SVG 1.1//EN" "http://www.w3.org/Graphics/SVG/1.1/DTD/svg11.dtd">
<svg version="1.1" xmlns="http://www.w3.org/2000/svg" xmlns:xlink="http://www.w3.org/1999/xlink" x="0px" y="0px"
	 width="39.104px" height="25.771px" viewBox="0 0 39.104 25.771" enable-background="new 0 0 39.104 25.771" xml:space="preserve">
<g id="bases" display="none">
	
		<image display="inline" overflow="visible" width="256" height="256" xlink:href="46B7DA5B.jpg"  transform="matrix(0.0741 0 0 0.0741 17.3336 4.6563)">
	</image>
</g>
<g id="Layer_2">
	<g>
		<g id="XMLID_33_">
			<g>
				<path fill="#C97129" d="M28.384,10.95c0.82-0.97,0.69-2.15-0.3-2.95c-0.61-0.49-1.34-0.72-2.08-0.89
					c-1.31-0.28-2.64-0.3-3.96-0.2c-1.32,0.09-2.61,0.28-3.86,0.73c-0.87,0.31-1.69,0.71-2.28,1.47c-0.51,0.65-0.57,1.5-0.11,2.2
					c0.18,0.28,0.42,0.52,0.67,0.75c0.14,0.14,0.21,0.28,0.22,0.49c0.17,2.3,0.33,4.59,0.5,6.89c0.08,1.06,0.75,1.64,1.81,1.56
					c1.33-0.1,2.67-0.19,4-0.29c1.34-0.1,2.67-0.2,4-0.3c1.06-0.08,1.62-0.74,1.55-1.79c-0.16-2.2-0.31-4.4-0.5-6.59
					C28.014,11.6,28.104,11.28,28.384,10.95z M30.494,9.05c0.01,0.19,0.02,0.38,0.04,0.57c-0.01,0.03-0.03,0.06-0.03,0.09
					c-0.03,0.78-0.3,1.48-0.76,2.11c-0.06,0.08-0.08,0.21-0.07,0.31c0.07,1.02,0.15,2.04,0.22,3.06c0.09,1.29,0.2,2.57,0.23,3.86
					c0.03,1.42-1.24,2.8-2.67,2.91c-2.88,0.23-5.76,0.44-8.64,0.62c-0.42,0.03-0.88-0.06-1.28-0.22c-1.22-0.5-1.84-1.46-1.94-2.77
					c-0.16-2.12-0.31-4.25-0.47-6.37c-0.01-0.13-0.08-0.28-0.17-0.37c-0.36-0.39-0.65-0.82-0.84-1.32c-0.08-0.23-0.14-0.46-0.21-0.7
					c-0.01-0.18-0.02-0.37-0.04-0.56c0.01-0.04,0.03-0.08,0.03-0.11c0.06-1.15,0.59-2.05,1.46-2.77c1.08-0.9,2.36-1.35,3.7-1.66
					c1.62-0.38,3.26-0.52,4.92-0.46c1.37,0.05,2.72,0.23,3.98,0.81c1.05,0.47,1.9,1.16,2.32,2.28
					C30.354,8.59,30.414,8.82,30.494,9.05z"/>
				<path fill="#C59B7E" d="M28.084,8c0.99,0.8,1.12,1.98,0.3,2.95c-0.28,0.33-0.37,0.65-0.34,1.08c0.19,2.19,0.34,4.39,0.5,6.59
					c0.07,1.05-0.49,1.71-1.55,1.79c-1.33,0.1-2.66,0.2-4,0.3c-1.33,0.1-2.67,0.19-4,0.29c-1.06,0.08-1.73-0.5-1.81-1.56
					c-0.17-2.3-0.33-4.59-0.5-6.89c-0.01-0.21-0.08-0.35-0.22-0.49c-0.25-0.23-0.49-0.47-0.67-0.75c-0.46-0.7-0.4-1.55,0.11-2.2
					c0.59-0.76,1.41-1.16,2.28-1.47c1.25-0.45,2.54-0.64,3.86-0.73c1.32-0.1,2.65-0.08,3.96,0.2C26.744,7.28,27.474,7.51,28.084,8z"
					/>
			</g>
		</g>
	</g>
	<g id="XMLID_1_">
		<g>
			<path fill="#FDF7BD" d="M17.914,14.471v3.55c-0.01,0.19-0.36,3.76-4.23,5.7l-0.11,0.05h-4.65l-0.11-0.05
				c-3.87-1.94-4.22-5.51-4.23-5.66v-3.59H17.914z"/>
		</g>
	</g>
	<path fill="#B0AEAE" d="M10.618,12.799c0,0-0.433-1.142-1.929-1.968c-1.496-0.827-1.968-2.008,0-2.756
		c1.968-0.748,4.527-1.142,2.795-1.575C9.752,6.067,5.343,5.096,8.886,2.924c0,0,1.85-1.041,2.244-0.74
		c0.394,0.301,0.512,0.774-0.354,1.049S5.658,4.65,10.815,5.595s3.071,1.732,1.653,2.283S7.902,8.666,8.414,9.689
		S11.012,11.421,10.618,12.799z"/>
	<path fill="#B0AEAE" d="M12.629,11.884c0,0-0.275-0.726-1.226-1.251c-0.951-0.525-1.251-1.276,0-1.752s3.303-0.475,2.402-0.125
		c-0.901,0.35-2.903,0.5-2.577,1.151C11.553,10.558,12.879,11.008,12.629,11.884z"/>
	<path fill="#FDF7BD" d="M6.337,21.393c-0.33,0.108-0.681,0.167-1.047,0.167c-1.85,0-3.355-1.505-3.355-3.355
		c0-1.607,1.135-2.953,2.646-3.28l0.002,1.033c-0.954,0.301-1.647,1.195-1.647,2.247c0,1.299,1.057,2.355,2.355,2.355
		c0.132,0,0.262-0.011,0.389-0.032L6.337,21.393z"/>
	<g>
		<g id="XMLID_34_">
			<g>
				<path fill="#C97129" d="M36.974,10.64c0.05,0.24,0.09,0.48,0.13,0.72c-0.01,0.18-0.02,0.37-0.03,0.56
					c-0.01,0.03-0.03,0.05-0.04,0.08c-0.12,0.78-0.48,1.44-1.01,2.01c-0.07,0.07-0.1,0.19-0.11,0.3c-0.05,1.02-0.1,2.04-0.15,3.06
					c-0.08,1.29-0.12,2.58-0.25,3.86c-0.14,1.42-1.57,2.62-3.01,2.56c-2.88-0.13-5.76-0.27-8.65-0.44
					c-0.42-0.03-0.87-0.17-1.24-0.38c-1.15-0.65-1.65-1.68-1.59-2.99c0.1-2.13,0.22-4.25,0.32-6.38c0-0.13-0.04-0.28-0.12-0.39
					c-0.31-0.43-0.55-0.89-0.67-1.41c-0.05-0.24-0.08-0.48-0.12-0.72c0.01-0.18,0.02-0.37,0.02-0.56c0.02-0.04,0.04-0.07,0.05-0.11
					c0.2-1.13,0.83-1.96,1.78-2.57c1.19-0.76,2.51-1.05,3.88-1.19c1.65-0.18,3.3-0.11,4.94,0.15c1.35,0.22,2.67,0.56,3.85,1.29
					C35.934,8.69,36.694,9.48,36.974,10.64z M34.784,12.97c0.93-0.86,0.94-2.05,0.06-2.96c-0.54-0.56-1.23-0.88-1.96-1.13
					c-1.26-0.45-2.57-0.63-3.9-0.69c-1.32-0.07-2.63-0.05-3.92,0.25c-0.9,0.2-1.77,0.5-2.44,1.18c-0.59,0.59-0.75,1.42-0.38,2.16
					c0.14,0.3,0.36,0.57,0.57,0.83c0.13,0.16,0.18,0.31,0.16,0.51c-0.12,2.31-0.23,4.61-0.35,6.91c-0.05,1.06,0.55,1.72,1.6,1.77
					c1.34,0.07,2.68,0.13,4.01,0.2c1.34,0.06,2.67,0.13,4.01,0.2c1.06,0.05,1.7-0.54,1.75-1.59c0.11-2.2,0.23-4.4,0.32-6.6
					C34.334,13.57,34.464,13.27,34.784,12.97z"/>
				<path fill="#C59B7E" d="M34.844,10.01c0.88,0.91,0.87,2.1-0.06,2.96c-0.32,0.3-0.45,0.6-0.47,1.04c-0.09,2.2-0.21,4.4-0.32,6.6
					c-0.05,1.05-0.69,1.64-1.75,1.59c-1.34-0.07-2.67-0.14-4.01-0.2c-1.33-0.07-2.67-0.13-4.01-0.2c-1.05-0.05-1.65-0.71-1.6-1.77
					c0.12-2.3,0.23-4.6,0.35-6.91c0.02-0.2-0.03-0.35-0.16-0.51c-0.21-0.26-0.43-0.53-0.57-0.83c-0.37-0.74-0.21-1.57,0.38-2.16
					c0.67-0.68,1.54-0.98,2.44-1.18c1.29-0.3,2.6-0.32,3.92-0.25c1.33,0.06,2.64,0.24,3.9,0.69
					C33.614,9.13,34.304,9.45,34.844,10.01z"/>
			</g>
		</g>
	</g>
</g>
</svg>
