<?xml version="1.0" encoding="utf-8"?>
<!-- Generator: Adobe Illustrator 17.0.0, SVG Export Plug-In . SVG Version: 6.00 Build 0)  -->
<!DOCTYPE svg PUBLIC "-//W3C//DTD SVG 1.1//EN" "http://www.w3.org/Graphics/SVG/1.1/DTD/svg11.dtd">
<svg version="1.1" id="Layer_1" xmlns="http://www.w3.org/2000/svg" xmlns:xlink="http://www.w3.org/1999/xlink" x="0px" y="0px"
	 width="81.326px" height="79.646px" viewBox="0 0 81.326 79.646" enable-background="new 0 0 81.326 79.646" xml:space="preserve">
<polygon points="2.832,43.558 0,40.734 39.125,1.484 40.534,0.07 41.951,1.477 81.326,40.602 78.506,43.44 40.548,5.722 "/>
<polygon points="71.41,79.646 69.41,79.646 48.91,79.646 46.91,79.646 46.91,77.646 46.91,56.068 40.663,56.068 34.416,56.068 
	34.416,77.646 34.416,79.646 32.416,79.646 11.916,79.646 9.916,79.646 9.916,77.646 9.916,42.896 13.916,42.896 13.916,75.646 
	30.416,75.646 30.416,54.068 30.416,52.068 32.416,52.068 40.663,52.068 48.91,52.068 50.91,52.068 50.91,54.068 50.91,75.646 
	67.41,75.646 67.41,42.896 71.41,42.896 71.41,77.646 "/>
</svg>
