<?xml version="1.0" encoding="utf-8"?>
<!-- Generator: Adobe Illustrator 17.0.0, SVG Export Plug-In . SVG Version: 6.00 Build 0)  -->
<!DOCTYPE svg PUBLIC "-//W3C//DTD SVG 1.1//EN" "http://www.w3.org/Graphics/SVG/1.1/DTD/svg11.dtd">
<svg version="1.1" xmlns="http://www.w3.org/2000/svg" xmlns:xlink="http://www.w3.org/1999/xlink" x="0px" y="0px"
	 width="39.104px" height="25.771px" viewBox="0 0 39.104 25.771" enable-background="new 0 0 39.104 25.771" xml:space="preserve">
<g id="bases" display="none">
	<g display="inline">
		<defs>
			<rect id="SVGID_3_" x="7.667" y="2.18" width="22.167" height="22.008"/>
		</defs>
		<clipPath id="SVGID_2_">
			<use xlink:href="#SVGID_3_"  overflow="visible"/>
		</clipPath>
		<g transform="matrix(1 0 0 1 0 -9.536743e-007)" clip-path="url(#SVGID_2_)">
			
				<image overflow="visible" width="1920" height="1080" xlink:href="1C23F11C.jpg"  transform="matrix(0.0739 0 0 0.0739 -95.0116 -14.6526)">
			</image>
		</g>
	</g>
	<g display="inline">
		<defs>
			<rect id="SVGID_9_" x="73.25" y="5.187" width="15.5" height="20.333"/>
		</defs>
		<clipPath id="SVGID_4_">
			<use xlink:href="#SVGID_9_"  overflow="visible"/>
		</clipPath>
		<g clip-path="url(#SVGID_4_)">
			
				<image overflow="visible" width="590" height="590" xlink:href="1C23F11D.jpg"  transform="matrix(0.1322 0 0 0.1322 31.75 -47.8333)">
			</image>
		</g>
	</g>
</g>
<g id="Layer_2">
	<g id="XMLID_21_">
		<g>
			
				<rect x="1.079" y="6.137" transform="matrix(-0.6198 -0.7848 0.7848 -0.6198 3.5556 16.1048)" fill="#C97129" width="9.201" height="2.109"/>
		</g>
	</g>
	<g id="XMLID_20_">
		<g>
			
				<rect x="4.968" y="5.46" transform="matrix(-0.2645 -0.9644 0.9644 -0.2645 5.5701 17.1689)" fill="#C97129" width="8.729" height="2.001"/>
		</g>
	</g>
	<polygon fill="#FDF7BD" points="20.248,15.418 17.332,23.785 13.481,23.785 9.631,23.785 6.715,15.418 	"/>
	<polygon fill="#FDF7BD" points="36.675,18.356 34.792,23.758 31.147,23.758 27.503,23.758 25.619,18.354 	"/>
	<g>
		<g id="XMLID_19_">
			<g>
				<path fill="#A6D59F" d="M10.2,11.04c2.251,0.205,4.012,2.273,3.853,4.615c-0.091,1.216-0.466,2.364-1.603,3.023
					c-0.58,0.341-0.887,0.693-0.796,1.387c0.057,0.477-0.284,0.796-0.693,0.807c-0.398,0-0.682-0.284-0.739-0.75
					c-0.08-0.671-0.534-1.125-1.114-1.114c-0.625,0.023-1.08,0.523-1.103,1.228c0,0.375,0,0.75,0,1.125c0,0.364,0.011,0.739,0,1.114
					c0,0.114,0.011,0.284-0.057,0.341c-0.182,0.136-0.409,0.33-0.614,0.318c-0.33-0.011-0.489-0.284-0.489-0.625
					c-0.011-1.193,0.011-2.387-0.023-3.569c0-0.227-0.102-0.5-0.261-0.648c-1-0.943-1.387-2.103-1.228-3.433
					C5.631,12.45,7.745,10.801,10.2,11.04z"/>
			</g>
		</g>
	</g>
	<g id="XMLID_16_">
		<g>
			<path fill="#F1EC67" d="M21.774,14.789c0,1.091-0.409,2.091-1.068,2.864c-0.284,0.386-0.284,0.852-0.284,0.852
				c0,0.17,0.023,0.318,0.045,0.421c0.148,0.705,0.023,1.466-0.364,2.023c-0.239,0.352-0.568,0.591-0.921,0.648
				c-0.057,0.011-0.114,0.011-0.17,0.011c-0.546,0-0.637-0.489-0.648-0.648v-0.068l-0.023-0.068
				c-0.023-0.102-0.057-0.216-0.091-0.341c-0.17-0.614-0.727-1.216-1.66-1.341c-2.08-0.364-3.671-2.171-3.671-4.353
				c0-2.444,1.989-4.422,4.422-4.422C19.785,10.368,21.774,12.346,21.774,14.789z"/>
		</g>
	</g>
	<g>
		<g>
			<g>
				<g>
					<path fill="#F8C0D9" d="M20.09,12.171c0.216,0.273,0.193,0.625-0.045,0.864c-0.205,0.193-0.455,0.182-0.705,0.148
						c-0.216-0.034-0.307-0.159-0.33-0.352c-0.045-0.341-0.273-0.546-0.591-0.511c-0.296,0.023-0.5,0.284-0.489,0.602
						c0.011,0.443,0.011,0.887,0.011,1.319c0,0.375-0.216,0.591-0.58,0.591c-0.33,0-0.546-0.239-0.557-0.602
						c0-0.114-0.011-0.239,0-0.364c0.034-0.33-0.25-0.58-0.523-0.58c-0.227,0-0.534,0.227-0.523,0.568c0.011,0.682,0,1.353,0,2.023
						c0,0.455-0.307,0.773-0.739,0.762c-0.398,0-0.716-0.33-0.716-0.762c0-0.409,0-0.83,0-1.25c0-0.261-0.17-0.455-0.409-0.466
						c-0.25-0.011-0.432,0.136-0.455,0.409c-0.023,0.261-0.011,0.523-0.034,0.784c-0.023,0.352-0.273,0.523-0.557,0.546
						c-0.318,0.023-0.591-0.239-0.591-0.546c0-0.511-0.011-1.034-0.011-1.546c-0.011-0.398,0-0.807-0.023-1.205
						c-0.023-0.318-0.296-0.511-0.602-0.489c-0.296,0.023-0.523,0.261-0.523,0.557c0,0.33,0,0.648,0,0.966
						c-0.011,0.33-0.227,0.625-0.523,0.705c-0.523,0.148-0.978-0.193-0.978-0.739c-0.011-0.364,0-0.727-0.011-1.08
						c0-0.227-0.216-0.432-0.421-0.432c-0.193,0.011-0.386,0.205-0.398,0.421c-0.011,0.148,0,0.296-0.011,0.443
						c-0.034,0.25-0.205,0.409-0.455,0.421c-0.091,0.011-0.193,0.011-0.284,0c-0.25-0.011-0.432-0.17-0.477-0.409
						c-0.068-0.33-0.091-0.364-0.421-0.421c-0.239-0.034-0.409-0.17-0.466-0.386c-0.057-0.193-0.023-0.432,0.159-0.568
						c0.318-0.239,0.648-0.477,0.978-0.693c0.114-0.08,0.148-0.136,0.148-0.261c0-0.216,0.011-0.432,0.045-0.648
						c0.102-0.943,0.455-1.785,1.034-2.535c0.762-0.978,1.75-1.625,2.955-1.91c0.296-0.068,0.602-0.102,0.898-0.148
						c0.227,0,0.466,0,0.693,0c0.216,0.034,0.443,0.068,0.659,0.114c2.41,0.466,4.194,2.637,4.194,5.058
						c0,0.17,0.057,0.261,0.205,0.352C19.192,11.239,19.681,11.659,20.09,12.171z"/>
				</g>
			</g>
		</g>
	</g>
	<g>
		<g id="XMLID_22_">
			<g>
				<path fill="#F493BB" d="M35.026,14.3c0.21,0.38,0.14,0.68-0.14,1.01c-0.06,0.07-0.11,0.18-0.12,0.28
					c-0.04,0.28,0.05,0.35,0.32,0.38s0.54,0.08,0.79,0.17c0.44,0.16,0.61,0.54,0.55,1.01c-0.06,0.46-0.27,0.84-0.58,1.18
					c-3.1,0-6.19,0-9.29,0c-0.14-0.14-0.28-0.28-0.42-0.43c-0.19-0.21-0.32-0.45-0.27-0.74c0.08-0.5,0.39-0.76,0.92-0.79
					c0.13,0,0.27-0.01,0.38-0.12c0.19-0.21,0.18-0.46,0.11-0.7c-0.13-0.51,0.01-0.79,0.51-0.93c0.16-0.05,0.33-0.08,0.5-0.11
					c0.21-0.03,0.37-0.21,0.38-0.43c0.01-0.16-0.04-0.3-0.07-0.45c-0.12-0.61,0.12-1.05,0.73-1.18c0.29-0.05,0.6-0.05,0.9-0.03
					c0.47,0.02,0.93-0.04,1.34-0.28c0.27-0.15,0.47-0.37,0.55-0.68c0.02-0.08,0.02-0.17,0.03-0.26c0.48,0.23,0.91,0.49,1.28,0.86
					c0.23,0.23,0.39,0.51,0.48,0.82c0.05,0.15,0.07,0.32,0.13,0.46c0.04,0.08,0.14,0.12,0.22,0.16c0.09,0.05,0.22,0.05,0.27,0.12
					C34.706,13.84,34.896,14.06,35.026,14.3z"/>
				<path fill="#D37FA5" d="M36.886,16.19c0.09,0.14,0.12,0.31,0.18,0.47c0,0.03,0.06-0.01,0.03,0.53
					c-0.04,0.55-0.33,1.06-0.36,1.14c-0.29,0-0.59,0-0.89,0c0.31-0.34,0.52-0.72,0.58-1.18c0.06-0.47-0.11-0.85-0.55-1.01
					c-0.25-0.09-0.52-0.14-0.79-0.17s-0.36-0.1-0.32-0.38c0.01-0.1,0.06-0.21,0.12-0.28c0.28-0.33,0.35-0.63,0.14-1.01
					c-0.13-0.24-0.32-0.46-0.5-0.68c-0.05-0.07-0.18-0.07-0.27-0.12c-0.08-0.04-0.18-0.08-0.22-0.16c-0.06-0.14-0.08-0.31-0.13-0.46
					c-0.09-0.31-0.25-0.59-0.48-0.82c-0.37-0.37-0.8-0.63-1.28-0.86c-0.01,0.09-0.01,0.18-0.03,0.26c-0.08,0.31-0.28,0.53-0.55,0.68
					c-0.41,0.24-0.87,0.3-1.34,0.28c-0.3-0.02-0.61-0.02-0.9,0.03c-0.61,0.13-0.85,0.57-0.73,1.18c0.03,0.15,0.08,0.29,0.07,0.45
					c-0.01,0.22-0.17,0.4-0.38,0.43c-0.17,0.03-0.34,0.06-0.5,0.11c-0.5,0.14-0.64,0.42-0.51,0.93c0.07,0.24,0.08,0.49-0.11,0.7
					c-0.11,0.11-0.25,0.12-0.38,0.12c-0.53,0.03-0.84,0.29-0.92,0.79c-0.05,0.29,0.08,0.53,0.27,0.74c0.14,0.15,0.28,0.29,0.42,0.43
					c-0.31,0-0.61,0-0.92,0c-0.21-0.24-0.35-0.53-0.43-0.84c0-0.15,0-0.3,0-0.46c0.07-0.24,0.16-0.48,0.3-0.69
					c0.24-0.35,0.56-0.54,0.97-0.6c0.02-0.01,0.05-0.01,0.08-0.02c0.02,0,0.05-0.01,0.08-0.02c-0.01-0.13-0.04-0.26-0.04-0.4
					c-0.02-0.62,0.24-1.02,0.82-1.25c0.14-0.06,0.29-0.09,0.43-0.13c0.09-0.02,0.13-0.03,0.11-0.15c-0.07-0.37-0.08-0.74,0.09-1.09
					c0.24-0.54,0.7-0.78,1.25-0.9c0.37-0.08,0.74-0.04,1.12-0.02c0.31,0.01,0.62-0.03,0.88-0.22c0.21-0.16,0.24-0.36,0.05-0.55
					c-0.09-0.1-0.21-0.18-0.32-0.26c-0.14-0.1-0.19-0.28-0.11-0.44c0.06-0.13,0.24-0.21,0.39-0.15c0.69,0.24,1.37,0.54,1.98,0.96
					c0.46,0.33,0.88,0.7,1.11,1.24c0.01,0.03,0.03,0.05,0.04,0.08c0.02,0.24,0.18,0.38,0.35,0.53c0.36,0.32,0.68,0.69,0.88,1.14
					c0.19,0.42,0.22,0.84-0.02,1.28c0.05,0.01,0.09,0.03,0.14,0.04C36.246,15.54,36.646,15.75,36.886,16.19z"/>
			</g>
		</g>
	</g>
	<g>
		<path fill="#D37FA5" d="M26.98,16.347c0.282-0.142,0.313-0.384,0.313-0.659c0.261,0.014,0.514,0.023,0.766,0.041
			c0.456,0.032,0.912,0.073,1.369,0.102c0.809,0.052,1.619,0.119,2.429,0.141c0.469,0.013,0.941-0.043,1.411-0.081
			c0.389-0.031,0.769-0.117,1.128-0.274c0.136-0.06,0.267-0.132,0.396-0.197c-0.011,0.189-0.087,0.41,0.212,0.541
			c-0.147,0.075-0.261,0.143-0.382,0.193c-0.458,0.188-0.936,0.296-1.427,0.363c-0.713,0.097-1.428,0.113-2.144,0.073
			c-0.654-0.037-1.307-0.104-1.961-0.152c-0.457-0.034-0.914-0.065-1.371-0.087C27.473,16.338,27.227,16.347,26.98,16.347z"/>
		<path fill="#D37FA5" d="M33.912,12.778c0.009,0.064,0.017,0.128,0.026,0.192c0.026,0.177,0.066,0.349,0.231,0.455
			c0.032,0.02,0.075,0.032,0.113,0.033c0.126,0.004,0.141,0.026,0.076,0.136c-0.279,0.468-0.716,0.718-1.219,0.874
			c-0.71,0.22-1.431,0.173-2.158,0.107c-0.713-0.065-1.429-0.092-2.145-0.13c-0.139-0.007-0.28,0.011-0.433,0.018
			c0.079-0.098,0.177-0.178,0.218-0.28c0.043-0.107,0.031-0.236,0.044-0.362c0.316,0,0.633-0.009,0.949,0.003
			c0.308,0.012,0.614,0.044,0.921,0.07c0.343,0.029,0.686,0.065,1.029,0.093c0.525,0.043,1.044,0.011,1.54-0.179
			c0.163-0.062,0.321-0.152,0.461-0.257c0.249-0.188,0.367-0.445,0.314-0.767C33.89,12.782,33.901,12.78,33.912,12.778z"/>
	</g>
	<g>
		<g>
			<path fill="#689F42" d="M26.376,19.087c-0.007-0.139-0.016-0.254-0.016-0.37c0-0.031,0.021-0.081,0.044-0.089
				c0.023-0.008,0.07,0.016,0.091,0.04c0.061,0.07,0.115,0.147,0.172,0.223c0.017,0.023,0.032,0.048,0.075,0.071
				c0.01-0.038,0.022-0.076,0.029-0.115c0.045-0.272,0.086-0.544,0.208-0.796c0.036-0.074,0.072-0.184,0.164-0.159
				c0.059,0.016,0.123,0.119,0.133,0.19c0.034,0.248,0.05,0.499,0.062,0.749c0.006,0.133-0.009,0.266-0.016,0.427
				c0.048-0.039,0.079-0.065,0.111-0.089c0.142-0.105,0.282-0.215,0.43-0.31c0.039-0.025,0.125-0.029,0.156-0.003
				c0.032,0.026,0.045,0.111,0.027,0.154c-0.068,0.166-0.149,0.327-0.229,0.488c-0.026,0.053-0.063,0.1-0.082,0.172
				c0.038-0.012,0.077-0.021,0.113-0.037c0.373-0.161,0.754-0.298,1.158-0.358c0.128-0.019,0.261-0.023,0.391-0.014
				c0.221,0.015,0.354,0.174,0.349,0.397c-0.001,0.05-0.011,0.099-0.017,0.16c-0.645-0.125-1.257-0.026-1.85,0.216
				c-0.001,0.013-0.002,0.026-0.003,0.038c0.045,0.009,0.09,0.019,0.135,0.027c0.202,0.036,0.406,0.065,0.583,0.177
				c0.044,0.028,0.104,0.086,0.099,0.121c-0.007,0.046-0.065,0.11-0.112,0.121c-0.188,0.043-0.381,0.068-0.571,0.1
				c-0.034,0.006-0.068,0.01-0.135,0.02c0.08,0.065,0.134,0.112,0.191,0.156c0.252,0.197,0.485,0.412,0.677,0.67
				c0.028,0.038,0.059,0.077,0.072,0.12c0.017,0.055,0.041,0.132,0.016,0.167c-0.022,0.032-0.114,0.041-0.162,0.024
				c-0.16-0.057-0.319-0.123-0.471-0.2c-0.113-0.057-0.215-0.136-0.323-0.204c-0.021-0.014-0.046-0.023-0.089-0.043
				c0.004,0.041,0.006,0.064,0.01,0.087c0.016,0.095,0.038,0.19,0.046,0.286c0.005,0.07-0.04,0.091-0.099,0.053
				c-0.05-0.032-0.095-0.073-0.154-0.119L26.376,19.087z"/>
			<g id="XMLID_73_">
				<g>
					<path fill="#EE252E" d="M27.579,21.822c0.064,0.519-0.15,0.965-0.613,1.26c-0.387,0.253-0.836,0.427-1.412,0.546
						c-0.607,0.126-1.235,0.157-1.842,0.099c-0.403-0.056-0.924-0.145-1.393-0.433c-0.565-0.34-0.8-0.888-0.654-1.547
						c0.123-0.549,0.386-1.061,0.806-1.617c0.454-0.583,0.979-1.066,1.55-1.41c0.329-0.198,0.619-0.319,0.923-0.387
						c0.136-0.026,0.259-0.032,0.391-0.017c0.242,0.027,0.465,0.134,0.671,0.311c0.307,0.27,0.525,0.601,0.67,0.863
						c0.367,0.645,0.596,1.151,0.764,1.661C27.508,21.364,27.553,21.594,27.579,21.822z"/>
				</g>
			</g>
		</g>
		
			<ellipse transform="matrix(0.4366 0.8997 -0.8997 0.4366 31.2051 -11.6783)" fill="#FDF7BD" cx="24.927" cy="19.076" rx="0.119" ry="0.206"/>
		
			<ellipse transform="matrix(0.4366 0.8997 -0.8997 0.4366 31.3036 -10.2375)" fill="#FDF7BD" cx="23.826" cy="19.875" rx="0.119" ry="0.206"/>
		
			<ellipse transform="matrix(0.4366 0.8997 -0.8997 0.4366 31.7821 -8.939)" fill="#FDF7BD" cx="23.028" cy="20.906" rx="0.119" ry="0.206"/>
		
			<ellipse transform="matrix(-0.4366 -0.8997 0.8997 -0.4366 17.9743 56.0644)" fill="#FDF7BD" cx="26.542" cy="22.404" rx="0.119" ry="0.206"/>
		
			<ellipse transform="matrix(-0.4366 -0.8997 0.8997 -0.4366 15.7604 55.419)" fill="#FDF7BD" cx="25.233" cy="22.775" rx="0.119" ry="0.206"/>
		
			<ellipse transform="matrix(-0.4366 -0.8997 0.8997 -0.4366 17.6023 51.7423)" fill="#FDF7BD" cx="25.003" cy="20.36" rx="0.119" ry="0.206"/>
		
			<ellipse transform="matrix(-0.4366 -0.8997 0.8997 -0.4366 17.3448 54.1239)" fill="#FDF7BD" cx="25.62" cy="21.631" rx="0.119" ry="0.206"/>
		
			<ellipse transform="matrix(-0.4366 -0.8997 0.8997 -0.4366 15.4135 52.7104)" fill="#FDF7BD" cx="24.211" cy="21.529" rx="0.119" ry="0.206"/>
		
			<ellipse transform="matrix(-0.4366 -0.8997 0.8997 -0.4366 19.1296 54.3168)" fill="#FDF7BD" cx="26.572" cy="21.169" rx="0.119" ry="0.206"/>
		
			<ellipse transform="matrix(-0.4366 -0.8997 0.8997 -0.4366 19.3871 51.9352)" fill="#FDF7BD" cx="25.955" cy="19.897" rx="0.119" ry="0.206"/>
		
			<ellipse transform="matrix(-0.4366 -0.8997 0.8997 -0.4366 13.8982 54.2296)" fill="#FDF7BD" cx="23.929" cy="22.763" rx="0.119" ry="0.206"/>
		
			<ellipse transform="matrix(0.4366 0.8997 -0.8997 0.4366 32.6834 -7.8147)" fill="#FDF7BD" cx="22.581" cy="22.188" rx="0.119" ry="0.206"/>
	</g>
	<g>
		<g>
			<path fill="#689F42" d="M31.187,22.57c-0.054,0.06-0.097,0.11-0.144,0.158c-0.013,0.013-0.042,0.024-0.054,0.018
				c-0.013-0.006-0.022-0.035-0.021-0.054c0.004-0.054,0.013-0.107,0.021-0.161c0.002-0.016,0.007-0.032-0.001-0.06
				c-0.02,0.012-0.04,0.022-0.059,0.035c-0.129,0.093-0.258,0.187-0.41,0.24c-0.045,0.016-0.105,0.046-0.132-0.002
				c-0.018-0.031-0.002-0.099,0.023-0.132c0.088-0.115,0.183-0.224,0.281-0.331c0.052-0.057,0.112-0.105,0.181-0.168
				c-0.036-0.004-0.059-0.006-0.082-0.009c-0.101-0.015-0.203-0.027-0.303-0.049c-0.026-0.006-0.063-0.039-0.065-0.063
				c-0.002-0.024,0.027-0.064,0.052-0.074c0.096-0.04,0.195-0.073,0.293-0.106c0.032-0.011,0.067-0.015,0.104-0.037
				c-0.02-0.01-0.04-0.023-0.061-0.031c-0.218-0.087-0.43-0.186-0.619-0.327c-0.06-0.045-0.116-0.097-0.166-0.154
				c-0.084-0.097-0.074-0.216,0.02-0.305c0.021-0.02,0.045-0.036,0.072-0.058c0.213,0.315,0.503,0.524,0.845,0.668
				c0.006-0.005,0.011-0.01,0.017-0.014c-0.015-0.022-0.029-0.045-0.044-0.066c-0.068-0.097-0.14-0.192-0.166-0.311
				c-0.007-0.029-0.007-0.078,0.009-0.09c0.022-0.016,0.072-0.018,0.095-0.004c0.095,0.059,0.184,0.128,0.274,0.193
				c0.016,0.012,0.032,0.024,0.063,0.047c-0.006-0.059-0.009-0.101-0.014-0.142c-0.023-0.183-0.03-0.367-0.003-0.55
				c0.004-0.027,0.007-0.056,0.019-0.079c0.016-0.029,0.037-0.071,0.062-0.075c0.022-0.004,0.063,0.03,0.076,0.056
				c0.042,0.089,0.08,0.181,0.111,0.274c0.023,0.07,0.032,0.144,0.048,0.215c0.003,0.014,0.009,0.028,0.019,0.054
				c0.015-0.019,0.024-0.029,0.032-0.04c0.033-0.045,0.062-0.093,0.098-0.136c0.026-0.031,0.053-0.021,0.062,0.019
				c0.007,0.034,0.009,0.068,0.014,0.112L31.187,22.57z"/>
			<g id="XMLID_17_">
				<g>
					<path fill="#EE252E" d="M31.813,20.961c0.186-0.238,0.456-0.333,0.765-0.265c0.261,0.055,0.516,0.167,0.8,0.354
						c0.3,0.197,0.569,0.44,0.793,0.712c0.142,0.187,0.318,0.437,0.392,0.746c0.092,0.37-0.036,0.69-0.365,0.899
						c-0.275,0.174-0.591,0.276-0.99,0.331c-0.424,0.052-0.836,0.035-1.21-0.057c-0.215-0.054-0.383-0.123-0.535-0.219
						c-0.066-0.045-0.119-0.093-0.167-0.153c-0.088-0.11-0.135-0.245-0.147-0.401c-0.015-0.236,0.031-0.46,0.079-0.626
						c0.114-0.413,0.227-0.714,0.367-0.991C31.655,21.178,31.73,21.065,31.813,20.961z"/>
				</g>
			</g>
		</g>
		
			<ellipse transform="matrix(0.3274 -0.9449 0.9449 0.3274 -0.5199 45.6047)" fill="#FDF7BD" cx="31.774" cy="23.168" rx="0.069" ry="0.119"/>
		
			<ellipse transform="matrix(0.3274 -0.9449 0.9449 0.3274 -0.1142 46.4213)" fill="#FDF7BD" cx="32.551" cy="23.291" rx="0.069" ry="0.119"/>
		
			<ellipse transform="matrix(0.3274 -0.9449 0.9449 0.3274 0.4787 47.0632)" fill="#FDF7BD" cx="33.298" cy="23.195" rx="0.069" ry="0.119"/>
		
			<ellipse transform="matrix(-0.3274 0.9449 -0.9449 -0.3274 63.089 -2.613)" fill="#FDF7BD" cx="32.474" cy="21.147" rx="0.069" ry="0.119"/>
		
			<ellipse transform="matrix(-0.3274 0.9449 -0.9449 -0.3274 64.3624 -2.7524)" fill="#FDF7BD" cx="33.161" cy="21.531" rx="0.069" ry="0.119"/>
		
			<ellipse transform="matrix(-0.3274 0.9449 -0.9449 -0.3274 64.1988 -0.4738)" fill="#FDF7BD" cx="32.268" cy="22.612" rx="0.069" ry="0.119"/>
		
			<ellipse transform="matrix(-0.3274 0.9449 -0.9449 -0.3274 63.8246 -1.7508)" fill="#FDF7BD" cx="32.535" cy="21.84" rx="0.069" ry="0.119"/>
		
			<ellipse transform="matrix(-0.3274 0.9449 -0.9449 -0.3274 65.1163 -1.436)" fill="#FDF7BD" cx="33.069" cy="22.457" rx="0.069" ry="0.119"/>
		
			<ellipse transform="matrix(-0.3274 0.9449 -0.9449 -0.3274 62.8676 -1.4704)" fill="#FDF7BD" cx="31.957" cy="21.64" rx="0.069" ry="0.119"/>
		
			<ellipse transform="matrix(-0.3274 0.9449 -0.9449 -0.3274 63.2417 -0.1934)" fill="#FDF7BD" cx="31.69" cy="22.411" rx="0.069" ry="0.119"/>
		
			<ellipse transform="matrix(-0.3274 0.9449 -0.9449 -0.3274 65.5711 -2.5378)" fill="#FDF7BD" cx="33.689" cy="22.068" rx="0.069" ry="0.119"/>
		
			<ellipse transform="matrix(0.3274 -0.9449 0.9449 0.3274 1.2762 47.5013)" fill="#FDF7BD" cx="34.005" cy="22.854" rx="0.069" ry="0.119"/>
	</g>
</g>
</svg>
